<?xml version="1.0" encoding="utf-8"?>
<!-- Generator: Adobe Illustrator 24.0.2, SVG Export Plug-In . SVG Version: 6.00 Build 0)  -->
<svg version="1.1" xmlns="http://www.w3.org/2000/svg" xmlns:xlink="http://www.w3.org/1999/xlink" x="0px" y="0px"
	 viewBox="0 0 163.8 125" style="enable-background:new 0 0 163.8 125;" xml:space="preserve">
<style type="text/css">
	.st0{fill:#0070AB;}
	.st1{fill:#00A6A0;}
	.st2{fill:#898989;}
</style>
<g id="Layer_2">
</g>
<g id="Layer_1">
	<g>
		<path class="st0" d="M158.4,88.9l-10.6-1.5l-6.1-10.6c-1.7-2.9-4.7-4.7-8.1-4.7H122c-1.2,0-2,0.8-2,2v19c0,1.7-1.3,2.9-2.9,2.9H66
			c-0.8,0-1.3,0.7-1.3,1.3v6.9c0,1.2,0.8,2,2,2h4.7c0.3,4.7,4.4,8.4,9.1,8.4s8.8-3.7,9.1-8.4H137c0.3,4.7,4.4,8.4,9.1,8.4
			s8.8-3.7,9.1-8.4h2.9c2.2,0,4-1.9,4-4v-9.4C161.9,90.7,160.4,89,158.4,88.9z M80.3,110.3c-2.5,0-4.6-2-4.6-4.6s2-4.6,4.6-4.6
			c2.5,0,4.6,2,4.6,4.6C84.9,108.1,82.8,110.3,80.3,110.3z M126.7,87.2v-9.3h7.1c1.2,0,2.4,0.7,3,1.7l4.2,7.6H126.7z M145.9,110.3
			c-2.5,0-4.6-2-4.6-4.6s2-4.6,4.6-4.6c2.5,0,4.6,2,4.6,4.6C150.4,108.1,148.4,110.3,145.9,110.3z"/>
		<path class="st1" d="M66.3,63.6v20.2c0,2.9,2.4,5.1,5.1,5.1h38.4c2.9,0,5.1-2.4,5.1-5.1V63.6c0-2.9-2.4-5.1-5.1-5.1H71.4
			C68.7,58.4,66.3,60.7,66.3,63.6z M104.4,66c0-1,0.8-1.9,1.9-1.9s1.9,0.8,1.9,1.9v15.3c0,1-0.8,1.9-1.9,1.9s-1.9-0.8-1.9-1.9V66z
			 M94,66c0-1,0.8-1.9,1.9-1.9s1.9,0.8,1.9,1.9v15.3c0,1-0.8,1.9-1.9,1.9S94,82.3,94,81.3V66z M83.5,66c0-1,0.8-1.9,1.9-1.9
			s1.9,0.8,1.9,1.9v15.3c0,1-0.8,1.9-1.9,1.9s-1.9-0.7-1.9-1.9V66z M73.2,66c0-1,0.8-1.9,1.9-1.9s1.9,0.8,1.9,1.9v15.3
			c0,1-0.8,1.9-1.9,1.9s-1.9-0.8-1.9-1.9V66z"/>
		<path class="st2" d="M57.7,106.2H54V32.9h34.7v10.3L74.3,54.7h6.1l10.3-8.1l10.3,8.1h6.1L92.5,43.2V32.9h11.8c1,0,1.9-0.8,1.9-1.9
			v-4.4c0-0.8-0.7-1.7-1.5-1.9L40.9,10.2c-0.3,0-0.8,0-1.2,0.2L3,24.8c-0.7,0.3-1.2,1-1.2,1.7v4.4c0,1,0.8,1.9,1.9,1.9h1.5V37H3.6
			c-1,0-1.9,0.8-1.9,1.9v7.6c0,1,0.8,1.9,1.9,1.9h14.7c1,0,1.9-0.8,1.9-1.9v-7.6c0-1-0.8-1.9-1.9-1.9h-1.5v-4.2h15.2v73.5h-3.7
			c-1,0-1.9,0.8-1.9,1.9v4.9c0,1,0.8,1.9,1.9,1.9h29.5c1,0,1.9-0.8,1.9-1.9v-4.9C59.6,107.1,58.7,106.2,57.7,106.2z M41,15.7
			l7.1,8.9H36.8L41,15.7z M46.9,32.9l-11.1,9.4v-9.4H46.9z M13.1,37H9v-4.2h4.2V37H13.1z M13.6,24.7l23.6-9.3l-4.4,9.3H13.6z
			 M46.9,48.3l-11.1,9.4v-9.4H46.9z M46.9,63.8l-11.1,9.4v-9.4H46.9z M46.9,79.1l-11.1,9.4v-9.4H46.9z M35.8,94.6h11.1L35.8,104
			V94.6z M50.1,106.2H39l11.1-9.4V106.2z M50.1,90.7H39l11.1-9.4V90.7z M50.1,75.4H39L50.1,66V75.4z M50.1,59.9H39l11.1-9.4V59.9z
			 M50.1,44.5H39l11.1-9.4V44.5z M45.3,14.9l42.5,9.8H53L45.3,14.9z"/>
	</g>
</g>
</svg>
