<svg xmlns="http://www.w3.org/2000/svg" xmlns:xlink="http://www.w3.org/1999/xlink" version="1.1" x="0px" y="0px" viewBox="0 0 100 100" style="enable-background:new 0 0 100 100;" xml:space="preserve" fill="#CCCCCC"><path d="M33.2,51.1L46,39.9c-2.4-1.4-4-4-4-6.9c0-1.1,0.9-2,2-2s2,0.9,2,2c0,2.2,1.8,4,4,4s4-1.8,4-4c0-2.2-1.8-4-4-4  c-1.1,0-2-0.9-2-2v-8h4v6.2c3.5,0.9,6,4,6,7.8c0,2.9-1.6,5.5-4,6.9l12.8,11.2C66.5,51,66.3,51,66,51h-5.3L50,41.7L39.3,51H34  C33.7,51,33.5,51,33.2,51.1z M88,9H12c-1.7,0-3,1.3-3,3c0,1.6,1.3,3,3,3h76c1.7,0,3-1.4,3-3C91,10.3,89.7,9,88,9z M66,55h-8v8  c0,1.1-0.9,2-2,2H44c-1.1,0-2-0.9-2-2v-8h-8c-1.1,0-2,0.9-2,2v32c0,1.1,0.9,2,2,2h32c1.1,0,2-0.9,2-2V57C68,55.9,67.1,55,66,55z   M46,61h8v-6h-8V61z"/></svg>