<?xml version="1.0" encoding="utf-8"?>
<!-- Generator: Adobe Illustrator 24.0.2, SVG Export Plug-In . SVG Version: 6.00 Build 0)  -->
<svg version="1.1" id="Layer_1" xmlns="http://www.w3.org/2000/svg" xmlns:xlink="http://www.w3.org/1999/xlink" x="0px" y="0px"
	 viewBox="0 0 60 60.8" style="enable-background:new 0 0 60 60.8;" xml:space="preserve">
<style type="text/css">
	.st0{opacity:0.7;fill:#FFFFFF;}
</style>
<path class="st0" d="M34.7,31.8L25,43c-0.2,0.2-0.5,0.4-0.8,0.3c-0.3,0-0.6-0.2-0.8-0.5l-5.2-8.7L11,42.7v3.5h36.7L34.7,31.8z"/>
<path class="st0" d="M6,52.2h48c0.5,0,1-0.5,1-1V18.6c0-0.5-0.5-1-1-1H6c-0.5,0-1,0.5-1,1v32.6C5,51.7,5.5,52.2,6,52.2z M25.4,23.1
	c2.3,0,4.1,1.9,4.1,4.1s-1.9,4.1-4.1,4.1s-4.1-1.9-4.1-4.1S23.1,23.1,25.4,23.1z M9,42.3c0-0.2,0.1-0.5,0.2-0.6l8.4-9.9
	c0.2-0.2,0.5-0.4,0.8-0.3c0.3,0,0.6,0.2,0.8,0.5l5.2,8.7l9.5-10.9c0.2-0.2,0.5-0.3,0.7-0.3c0.3,0,0.6,0.1,0.8,0.3l15.4,16.9
	c0.3,0.3,0.3,0.7,0.2,1.1s-0.5,0.6-0.9,0.6H10c-0.6,0-1-0.4-1-1V42.3z"/>
<circle class="st0" cx="25.4" cy="27.2" r="2.1"/>
<path class="st0" d="M12.1,14.7h35.8c0.6,0,1-0.4,1-1s-0.4-1-1-1H12.1c-0.6,0-1,0.4-1,1S11.6,14.7,12.1,14.7z"/>
<path class="st0" d="M20.2,9.8h19.5c0.6,0,1-0.4,1-1s-0.4-1-1-1H20.2c-0.6,0-1,0.4-1,1S19.7,9.8,20.2,9.8z"/>
</svg>
