<svg xmlns="http://www.w3.org/2000/svg" xmlns:xlink="http://www.w3.org/1999/xlink" version="1.1" x="0px" y="0px" viewBox="0 0 100 100" enable-background="new 0 0 100 100" xml:space="preserve"><path d="M50,13.976C31.461-5.49,4.245,20.464,23.878,40.033L50,66.155l26.122-26.122C95.755,20.464,68.539-5.49,50,13.976z   M94.811,33.727c-0.098-1.208-1.82-1.301-2.055-0.113c-5.719,28.939-24.327,33.89-24.327,33.89  c12.709-11.813,5.016-18.561,5.016-18.561c-5.597,7.571-3.025,4.391-14.584,16.083c-11.559,11.692-5.193,27.885-5.193,27.885  C93.533,79.39,95.897,47.115,94.811,33.727z M26.568,48.974c0,0-7.684,6.758,5.041,18.554c0,0-18.615-4.926-24.372-33.858  c-0.236-1.188-1.958-1.092-2.055,0.115C4.114,47.175,6.521,79.447,46.404,92.917c0,0,6.344-16.202-5.23-27.879  C29.599,53.362,32.175,56.538,26.568,48.974z" fill="#777777"/></svg>