<svg xmlns="http://www.w3.org/2000/svg" viewBox="0 0 512 512" x="0px" y="0px"><title>flower</title><path d="M488.89,205.36a67,67,0,0,0-49.67-16.15q-2.91-7.92-6.47-15.51A67,67,0,1,0,338.3,79.25q-7.59-3.56-15.51-6.47a67,67,0,1,0-133.58,0q-7.92,2.91-15.51,6.47A67,67,0,1,0,79.25,173.7q-3.56,7.59-6.47,15.51A67,67,0,1,0,67,323q2.88,0,5.76-.26c1.93,5.29,4.1,10.46,6.47,15.52a67,67,0,0,0,43.12,118.35c1.58,0,3.17,0,4.76-.16a67,67,0,0,0,46.57-23.74q7.59,3.56,15.51,6.47a67,67,0,1,0,133.58,0q7.92-2.91,15.51-6.47a67,67,0,0,0,46.57,23.74c1.59.11,3.17.16,4.76.16A67,67,0,0,0,432.75,338.3c2.37-5.06,4.54-10.23,6.47-15.52q2.88.25,5.76.26a67,67,0,0,0,43.91-117.68ZM256,421c-91,0-165-74-165-165S165,91,256,91s165,74,165,165S347,421,256,421ZM387,85.44a37,37,0,0,1,30.48,61.35,196.53,196.53,0,0,0-52.26-52.26A37,37,0,0,1,387,85.44ZM228,42.77A37,37,0,0,1,293,64.53a195.15,195.15,0,0,0-73.9,0A37,37,0,0,1,228,42.77ZM85.44,125a37,37,0,0,1,61.35-30.48,196.53,196.53,0,0,0-52.26,52.26A37,37,0,0,1,85.44,125ZM42.77,284a37,37,0,0,1,21.76-64.93,195.15,195.15,0,0,0,0,73.9A37,37,0,0,1,42.77,284ZM125,426.56a37,37,0,0,1-30.48-61.35,196.53,196.53,0,0,0,52.26,52.26A37,37,0,0,1,125,426.56Zm159,42.67a37,37,0,0,1-64.93-21.76,195.15,195.15,0,0,0,73.9,0A37,37,0,0,1,284,469.23ZM426.56,387a37,37,0,0,1-61.35,30.48,196.53,196.53,0,0,0,52.26-52.26A37,37,0,0,1,426.56,387Zm42.67-103a37,37,0,0,1-21.76,9,195.15,195.15,0,0,0,0-73.9A37,37,0,0,1,469.23,284Z" fill="#777777" /><path d="M256,131A125,125,0,1,0,381,256,125.14,125.14,0,0,0,256,131Zm95,125a94.41,94.41,0,0,1-14,49.65l-66-56.59V162.19A95.14,95.14,0,0,1,351,256ZM241,349.81a94.66,94.66,0,0,1-46.42-21.4L241,288.59Zm30-61.22,46.42,39.82A94.66,94.66,0,0,1,271,349.81Zm-30-126.4v86.87l-66,56.59a95,95,0,0,1,66-143.46Z" fill="#777777"/></svg>