<svg xmlns="http://www.w3.org/2000/svg" xmlns:xlink="http://www.w3.org/1999/xlink" version="1.1" x="0px" y="0px" viewBox="0 0 53 53" enable-background="new 0 0 53 53" xml:space="preserve"><g><g><path d="M30.2308,16.63515c-0.10563-0.10552-6.68066-6.67415-6.26239-6.25629v5.12313c0,0.62507,0.50809,1.13316,1.13316,1.13316    H30.2308z" fill="#777"/><path d="M21.88519,15.50198V8.90443H6.52535C6.5209,8.90449,6.51721,8.90697,6.51276,8.90697    c-0.00445,0-0.00814-0.00248-0.01259-0.00254h-3.9789C1.95825,8.90443,1.5,9.36268,1.5,9.9257v37.13389    c0,0.56353,0.45825,1.02127,1.02127,1.02127H30.6804c0.56302,0,1.02127-0.45774,1.02127-1.02127v-3.98501    c-0.00006-0.00445-0.00254-0.00814-0.00254-0.01259c0-0.00445,0.00248-0.00814,0.00254-0.01259V18.71837h-6.6001    C23.32808,18.71837,21.88519,17.27547,21.88519,15.50198z M6.82453,15.06764h8.73418c0.57523,0,1.04161,0.46639,1.04161,1.04161    c0,0.57523-0.46639,1.04161-1.04161,1.04161H6.82453c-0.57523,0-1.04161-0.46639-1.04161-1.04161    C5.78292,15.53403,6.2493,15.06764,6.82453,15.06764z M26.37053,44.39351H6.8347c-0.57523,0-1.04161-0.46588-1.04161-1.04161    c0-0.57573,0.46639-1.04161,1.04161-1.04161h19.53583c0.57523,0,1.04161,0.46588,1.04161,1.04161    C27.41214,43.92763,26.94576,44.39351,26.37053,44.39351z M26.37053,37.5859H6.8347c-0.57523,0-1.04161-0.46638-1.04161-1.04161    s0.46639-1.04161,1.04161-1.04161h19.53583c0.57523,0,1.04161,0.46639,1.04161,1.04161S26.94576,37.5859,26.37053,37.5859z     M26.37053,30.77218H6.8347c-0.57523,0-1.04161-0.46639-1.04161-1.04161s0.46639-1.04161,1.04161-1.04161h19.53583    c0.57523,0,1.04161,0.46639,1.04161,1.04161S26.94576,30.77218,26.37053,30.77218z M27.41214,22.91737    c0,0.57523-0.46639,1.04161-1.04161,1.04161H6.8347c-0.57523,0-1.04161-0.46639-1.04161-1.04161    c0-0.57523,0.46639-1.04161,1.04161-1.04161h19.53583C26.94576,21.87576,27.41214,22.34214,27.41214,22.91737z" fill="#777"/><path d="M36.74037,2.84497H8.57513c-0.56302,0-1.02076,0.45774-1.02076,1.02076V6.8212h15.27141    c0.00305-0.00032,0.00604,0.00025,0.00909,0c0.10427,0.01826,0.49365-0.03347,0.82838,0.30058    c0.99553,0.99529-3.60405-3.60315,9.73002,9.72761c0.25061,0.19015,0.41451,0.48851,0.41451,0.82737    c0,0.04018-0.01844,0.07425-0.02289,0.11329v24.23033h2.95547c0.56302,0,1.02076-0.45774,1.02076-1.02127V3.86573    C37.76113,3.30271,37.30339,2.84497,36.74037,2.84497z" fill="#777"/></g><g><path d="M48.06269,38.68193V14.24021h1.07289c0.1562,0,0.28119,0.11462,0.28119,0.27083v9.22867    c0,0.57294,0.45831,1.04161,1.04161,1.04161c0.57287,0,1.04161-0.46868,1.04161-1.04161v-9.22867    c0-1.30202-1.0624-2.35405-2.36442-2.35405h-1.07289V10.5425c0-0.8437-0.68744-1.53114-1.53114-1.53114h-0.82304V6.9804    c0-0.57523-0.46638-1.04161-1.04161-1.04161c-0.57523,0-1.04161,0.46639-1.04161,1.04161v2.03097h-0.8123    c-0.8437,0-1.54163,0.68744-1.54163,1.53114v28.13943H48.06269z" fill="#777"/><path d="M41.28585,40.76515c0.07457,3.45956,0.99679,5.97166,2.46455,8.82738c0.14584,0.29168,0.4271,0.48959,0.75,0.55209    c0.06249,0,0.11456,0.01043,0.17706,0.01043c0.2604,0,0.53123-0.1042,0.71872-0.29168    c0.09377-0.08335,0.16663-0.17706,0.21876-0.28126c1.45053-2.85115,2.36346-5.35708,2.43409-8.81696H41.28585z" fill="#777"/></g></g></svg>