<?xml version="1.0" encoding="utf-8"?>
<!-- Generator: Adobe Illustrator 24.0.2, SVG Export Plug-In . SVG Version: 6.00 Build 0)  -->
<svg version="1.1" id="Layer_1" xmlns="http://www.w3.org/2000/svg" xmlns:xlink="http://www.w3.org/1999/xlink" x="0px" y="0px"
	 viewBox="0 0 52.3 29.7" style="enable-background:new 0 0 52.3 29.7;" xml:space="preserve">
<style type="text/css">
	.st0{fill-rule:evenodd;clip-rule:evenodd;fill:#CCCCCC;}
</style>
<g>
	<path class="st0" d="M37.3,20.5v-2h3.9v2H37.3L37.3,20.5z M32.1,20.5v-2H36v2H32.1L32.1,20.5z M25.9,14.1v-3.8h-5.5v3.8H25.9z
		 M26.6,10.4v3.8h5.5v-3.8H26.6z M32.9,10.4v3.8h5.5v-3.8H32.9z M39.1,10.4v3.8h5.5v-3.8H39.1z M36,9.7h5.5V5.9H36V9.7z M35.2,9.7
		V5.9h-5.5v3.8H35.2z M29,9.7V5.9h-5.5v3.8H29z M43.1,25.1c-4.7-1.8-7.1-2.7-13.7-0.4c-4.7,1.7-6.5,1.7-11.2,0
		c-6.5-2.3-9-1.4-13.7,0.4C3.8,25.4,3,25.7,2,26l0.9,2.6c0.9-0.3,1.8-0.6,2.6-0.9c4.1-1.6,6.2-2.4,11.8-0.4c5.3,1.9,7.6,1.9,13,0
		c5.6-2,7.7-1.2,11.8,0.4c0.8,0.3,1.7,0.6,2.6,0.9l0.9-2.6C44.7,25.7,43.9,25.4,43.1,25.1z M51.2,14.7H15.5v-2.9h-3V1H9.7v10.8h-3
		v2.9H1.2l3,9.2C5.1,23.5,6,23.2,6.8,23c4.1-1.3,6.7-1.3,11.9,0.5c4.4,1.6,5.9,1.6,10.3,0c6-2.1,8.6-1.8,14.3,0.3L51.2,14.7z"/>
</g>
</svg>
