<svg xmlns="http://www.w3.org/2000/svg" xmlns:xlink="http://www.w3.org/1999/xlink" xml:space="preserve" version="1.1" style="shape-rendering:geometricPrecision;text-rendering:geometricPrecision;image-rendering:optimizeQuality;" viewBox="0 0 8278 13297.5" x="0px" y="0px" fill-rule="evenodd" clip-rule="evenodd"><defs></defs><g><path class="fil0" d="M4590 7963c636,-124 1196,-474 1589,-967 -249,-73 -550,-131 -881,-172 -166,514 -414,918 -708,1139zm-451 188c-1528,37 -2764,-1365 -2764,-2842 0,-1487 1240,-2859 2764,-2823 1537,-38 2764,1344 2764,2838 0,1471 -1248,2864 -2764,2827zm-452 -188c-294,-221 -541,-625 -707,-1139 -331,41 -632,99 -881,172 393,493 953,843 1588,967zm-740 -1247c-115,-397 -183,-854 -188,-1342l-1245 0c12,570 201,1097 513,1527 256,-77 570,-140 920,-185zm-188 -1453c5,-487 73,-944 188,-1341 -351,-45 -663,-108 -920,-186 -312,431 -501,957 -513,1527l1245 0zm221 -1449c166,-515 413,-918 707,-1140 -635,125 -1195,474 -1588,968 249,73 550,131 881,172zm327 3445c206,403 472,673 762,739l0 -1246c-335,5 -655,24 -949,55 54,164 117,316 187,452zm762 -4619c-460,105 -783,686 -949,1190 294,32 614,51 949,55l0 -1245zm-982 1298c-116,390 -184,842 -189,1325l1171 0 0 -1267c-347,-4 -678,-24 -982,-58zm-189 1436c5,484 73,936 189,1326 304,-34 635,-54 982,-59l0 -1267 -1171 0zm2260 1433c-294,-31 -614,-50 -950,-55l0 1246c461,-105 784,-687 950,-1191zm33 -107c116,-390 184,-842 189,-1326l-1172 0 0 1267c347,5 679,25 983,59zm189 -1437c-5,-483 -73,-935 -189,-1325 -304,34 -636,54 -983,58l0 1267 1172 0zm-222 -1433c-166,-504 -489,-1085 -950,-1190l0 1245c336,-4 656,-23 950,-55zm172 2886c116,-397 184,-854 188,-1342l1245 0c-11,570 -200,1097 -513,1527 -256,-78 -568,-140 -920,-185zm188 -1453c-4,-487 -72,-944 -188,-1341 352,-45 664,-108 920,-186 313,431 502,957 513,1527l-1245 0zm-220 -1449c-166,-515 -414,-918 -708,-1140 636,125 1196,474 1589,968 -249,73 -550,131 -881,172z" fill="#777777"/><path class="fil0" d="M4139 0c1139,770 2511,1234 4139,1357 0,4156 -45,7232 -4139,9281 -4094,-2049 -4139,-5125 -4139,-9281 1463,-118 2839,-487 4139,-1357zm0 2243c1699,0 3076,1377 3076,3076 0,1699 -1377,3076 -3076,3076 -1699,0 -3076,-1377 -3076,-3076 0,-1699 1377,-3076 3076,-3076z" fill="#777777"/></g></svg>